	<?xml version="1.0" standalone="no"?>
	<!DOCTYPE svg PUBLIC "-//W3C//DTD SVG 1.1//EN" 
	"http://www.w3.org/Graphics/SVG/1.1/DTD/svg11.dtd">
	<svg width="176" height="46" version="1.1" xmlns="http://www.w3.org/2000/svg">
		<path id="pulse_1_" fill-rule="evenodd" clip-rule="evenodd" fill="#bab9bd" d="M46.259,21.48l-3.737,0.083
		c0,0-1.267,0.043-3.741,0.076c-0.582,0.008-0.862-0.126-1.029-0.716c-0.942-3.325-1.958-6.625-2.926-9.942
		c-0.144-0.494-0.432-0.818-0.943-0.818c-0.522-0.001-0.811,0.344-0.909,0.846c-0.011,0.055-0.035,0.108-0.049,0.163
		c-1.785,6.813-3.57,13.626-5.354,20.439c-0.689,2.632-1.38,5.265-2.07,7.896c-0.041-0.006-0.082-0.011-0.123-0.017
		c-0.058-0.328-0.121-0.653-0.173-0.981c-0.886-5.568-1.77-11.136-2.655-16.703c-0.888-5.586-1.776-11.172-2.666-16.758
		c-0.222-1.392-0.447-2.783-0.668-4.175c-0.082-0.513-0.365-0.836-0.89-0.852c-0.497-0.014-0.796,0.279-0.917,0.757
		c-0.027,0.109-0.059,0.217-0.085,0.327c-1.593,6.629-3.191,13.257-4.765,19.891c-0.122,0.514-0.306,0.679-0.847,0.672
		c-1.948-0.023-3.896-0.021-5.846-0.013c-0.38-1.221-1.519-2.107-2.865-2.107C1.344,19.549,0,20.893,0,22.55s1.344,3.001,3.001,3.001
		c1.339,0,2.473-0.877,2.859-2.088c2.325-0.001,4.649-0.001,6.974-0.003c0.801,0,1.008-0.169,1.2-0.964
		c1.309-5.422,2.618-10.845,3.928-16.268c0.033-0.137,0.086-0.27,0.181-0.56c0.148,0.919,0.272,1.671,0.392,2.425
		c0.813,5.103,1.627,10.206,2.439,15.31c0.806,5.066,1.61,10.133,2.416,15.199c0.301,1.894,0.58,3.791,0.929,5.674
		c0.057,0.304,0.384,0.669,0.673,0.78c0.232,0.089,0.643-0.101,0.884-0.286c0.177-0.137,0.234-0.457,0.3-0.707
		c2.239-8.539,4.473-17.078,6.708-25.617c0.335-1.28,0.677-2.558,1.05-3.963c0.094,0.292,0.149,0.45,0.197,0.611
		c0.724,2.449,1.446,4.899,2.17,7.348c0.268,0.903,0.421,1.018,1.348,1.019c1.825,0.001,3.707,0.002,5.532,0.002l1.382,0.007
		l1.695,0.011h129.323v-2H46.259z"/>
		
		
	</svg>
